HIERARCHY
ROOT hip
{
  OFFSET 0 90.174 2.4664
  CHANNELS 6 Xposition Yposition Zposition Zrotation Xrotation Yrotation
  JOINT abdomen
  {
    OFFSET 0 -1.186 -1.5018
    CHANNELS 6 Xposition Yposition Zposition Zrotation Xrotation Yrotation
    JOINT abdomen2
    {
      OFFSET 0 9.964 0.2134
      CHANNELS 6 Xposition Yposition Zposition Zrotation Xrotation Yrotation
      JOINT chest
      {
        OFFSET 0 13.134 -3.2573
        CHANNELS 6 Xposition Yposition Zposition Zrotation Xrotation Yrotation
        JOINT neck
        {
          OFFSET 0 20.686 -1.6905
          CHANNELS 6 Xposition Yposition Zposition Zrotation Xrotation Yrotation
          JOINT head
          {
            OFFSET 0 7.238 -0.1237
            CHANNELS 6 Xposition Yposition Zposition Zrotation Xrotation Yrotation
            End Site
            {
              OFFSET 0 0 0
            }
          }
        }
        JOINT lCollar
        {
          OFFSET 1.7069 20.075 5.0056
          CHANNELS 6 Xposition Yposition Zposition Zrotation Xrotation Yrotation
          JOINT lShldr
          {
            OFFSET 13.6458 -0.047 -4.849
            CHANNELS 6 Xposition Yposition Zposition Zrotation Xrotation Yrotation
            JOINT lForeArm
            {
              OFFSET 28.3255 -0.9759 2.2888
              CHANNELS 6 Xposition Yposition Zposition Zrotation Xrotation Yrotation
              JOINT lHand
              {
                OFFSET 22.1583 -0.53 10.8316
                CHANNELS 6 Xposition Yposition Zposition Zrotation Xrotation Yrotation
                JOINT lThumb1
                {
                  OFFSET 0.786 0.112 2.5817
                  CHANNELS 6 Xposition Yposition Zposition Zrotation Xrotation Yrotation
                  JOINT lThumb2
                  {
                    OFFSET 0.3601 -0.878 4.2331
                    CHANNELS 6 Xposition Yposition Zposition Zrotation Xrotation Yrotation
                    JOINT lThumb2_End
                    {
                      OFFSET 1.8127 -1.216 2.2227
                      CHANNELS 6 Xposition Yposition Zposition Zrotation Xrotation Yrotation
                      End Site
                      {
                        OFFSET 0.0181 -0.0122 0.0222
                      }
                    }
                  }
                }
                JOINT lCarpal1
                {
                  OFFSET 0.9571 1.114 1.7695
                  CHANNELS 6 Xposition Yposition Zposition Zrotation Xrotation Yrotation
                  JOINT lIndex1
                  {
                    OFFSET 4.1246 0.487 4.1451
                    CHANNELS 6 Xposition Yposition Zposition Zrotation Xrotation Yrotation
                    JOINT lIndex2
                    {
                      OFFSET 3.4052 -1.454 2.7682
                      CHANNELS 6 Xposition Yposition Zposition Zrotation Xrotation Yrotation
                      JOINT lIndex2_End
                      {
                        OFFSET 1.4531 -1.795 1.2713
                        CHANNELS 6 Xposition Yposition Zposition Zrotation Xrotation Yrotation
                        End Site
                        {
                          OFFSET 0.0145 -0.0179 0.0127
                        }
                      }
                    }
                  }
                  JOINT lMid1
                  {
                    OFFSET 5.6954 0.21 2.1184
                    CHANNELS 6 Xposition Yposition Zposition Zrotation Xrotation Yrotation
                    JOINT lMid2
                    {
                      OFFSET 3.9766 -1.54 2.3863
                      CHANNELS 6 Xposition Yposition Zposition Zrotation Xrotation Yrotation
                      JOINT lMid2_End
                      {
                        OFFSET 1.4042 -1.926 1.125
                        CHANNELS 6 Xposition Yposition Zposition Zrotation Xrotation Yrotation
                        End Site
                        {
                          OFFSET 0.014 -0.0193 0.0113
                        }
                      }
                    }
                  }
                }
                JOINT lCarpal2
                {
                  OFFSET 2.0956 0.66 -0.3894
                  CHANNELS 6 Xposition Yposition Zposition Zrotation Xrotation Yrotation
                  JOINT lRing1
                  {
                    OFFSET 5.0395 -0.09 2.4971
                    CHANNELS 6 Xposition Yposition Zposition Zrotation Xrotation Yrotation
                    JOINT lRing2
                    {
                      OFFSET 3.7921 -1.552 1.4806
                      CHANNELS 6 Xposition Yposition Zposition Zrotation Xrotation Yrotation
                      JOINT lRing2_End
                      {
                        OFFSET 1.4655 -1.808 0.9609
                        CHANNELS 6 Xposition Yposition Zposition Zrotation Xrotation Yrotation
                        End Site
                        {
                          OFFSET 0.0147 -0.0181 0.0096
                        }
                      }
                    }
                  }
                  JOINT lPinky1
                  {
                    OFFSET 4.9141 -1.269 0.3591
                    CHANNELS 6 Xposition Yposition Zposition Zrotation Xrotation Yrotation
                    JOINT lPinky2
                    {
                      OFFSET 3.1477 -1.685 0.8462
                      CHANNELS 6 Xposition Yposition Zposition Zrotation Xrotation Yrotation
                      JOINT lPinky2_End
                      {
                        OFFSET 0.8055 -1.585 0.7955
                        CHANNELS 6 Xposition Yposition Zposition Zrotation Xrotation Yrotation
                        End Site
                        {
                          OFFSET 0.0081 -0.0158 0.008
                        }
                      }
                    }
                  }
                }
              }
            }
          }
        }
        JOINT rCollar
        {
          OFFSET -1.7069 20.075 5.0056
          CHANNELS 6 Xposition Yposition Zposition Zrotation Xrotation Yrotation
          JOINT rShldr
          {
            OFFSET -13.6458 -0.047 -4.849
            CHANNELS 6 Xposition Yposition Zposition Zrotation Xrotation Yrotation
            JOINT rForeArm
            {
              OFFSET -28.3255 -0.9759 2.2888
              CHANNELS 6 Xposition Yposition Zposition Zrotation Xrotation Yrotation
              JOINT rHand
              {
                OFFSET -22.1583 -0.53 10.8316
                CHANNELS 6 Xposition Yposition Zposition Zrotation Xrotation Yrotation
                JOINT rThumb1
                {
                  OFFSET -0.786 0.112 2.5817
                  CHANNELS 6 Xposition Yposition Zposition Zrotation Xrotation Yrotation
                  JOINT rThumb2
                  {
                    OFFSET -0.3601 -0.878 4.2331
                    CHANNELS 6 Xposition Yposition Zposition Zrotation Xrotation Yrotation
                    JOINT rThumb2_End
                    {
                      OFFSET -1.8127 -1.216 2.2227
                      CHANNELS 6 Xposition Yposition Zposition Zrotation Xrotation Yrotation
                      End Site
                      {
                        OFFSET -0.0181 -0.0122 0.0222
                      }
                    }
                  }
                }
                JOINT rCarpal1
                {
                  OFFSET -0.9571 1.114 1.7695
                  CHANNELS 6 Xposition Yposition Zposition Zrotation Xrotation Yrotation
                  JOINT rIndex1
                  {
                    OFFSET -4.1246 0.487 4.1451
                    CHANNELS 6 Xposition Yposition Zposition Zrotation Xrotation Yrotation
                    JOINT rIndex2
                    {
                      OFFSET -3.4052 -1.454 2.7682
                      CHANNELS 6 Xposition Yposition Zposition Zrotation Xrotation Yrotation
                      JOINT rIndex2_End
                      {
                        OFFSET -1.4531 -1.795 1.2713
                        CHANNELS 6 Xposition Yposition Zposition Zrotation Xrotation Yrotation
                        End Site
                        {
                          OFFSET -0.0145 -0.018 0.0127
                        }
                      }
                    }
                  }
                  JOINT rMid1
                  {
                    OFFSET -5.6954 0.21 2.1184
                    CHANNELS 6 Xposition Yposition Zposition Zrotation Xrotation Yrotation
                    JOINT rMid2
                    {
                      OFFSET -3.9766 -1.54 2.3863
                      CHANNELS 6 Xposition Yposition Zposition Zrotation Xrotation Yrotation
                      JOINT rMid2_End
                      {
                        OFFSET -1.4042 -1.926 1.125
                        CHANNELS 6 Xposition Yposition Zposition Zrotation Xrotation Yrotation
                        End Site
                        {
                          OFFSET -0.014 -0.0193 0.0113
                        }
                      }
                    }
                  }
                }
                JOINT rCarpal2
                {
                  OFFSET -2.0956 0.66 -0.3894
                  CHANNELS 6 Xposition Yposition Zposition Zrotation Xrotation Yrotation
                  JOINT rRing1
                  {
                    OFFSET -5.0395 -0.09 2.4971
                    CHANNELS 6 Xposition Yposition Zposition Zrotation Xrotation Yrotation
                    JOINT rRing2
                    {
                      OFFSET -3.7921 -1.552 1.4806
                      CHANNELS 6 Xposition Yposition Zposition Zrotation Xrotation Yrotation
                      JOINT rRing2_End
                      {
                        OFFSET -1.4655 -1.808 0.9609
                        CHANNELS 6 Xposition Yposition Zposition Zrotation Xrotation Yrotation
                        End Site
                        {
                          OFFSET -0.0147 -0.0181 0.0096
                        }
                      }
                    }
                  }
                  JOINT rPinky1
                  {
                    OFFSET -4.9141 -1.269 0.3592
                    CHANNELS 6 Xposition Yposition Zposition Zrotation Xrotation Yrotation
                    JOINT rPinky2
                    {
                      OFFSET -3.1477 -1.685 0.8462
                      CHANNELS 6 Xposition Yposition Zposition Zrotation Xrotation Yrotation
                      JOINT rPinky2_End
                      {
                        OFFSET -0.8055 -1.585 0.7955
                        CHANNELS 6 Xposition Yposition Zposition Zrotation Xrotation Yrotation
                        End Site
                        {
                          OFFSET -0.0081 -0.0158 0.008
                        }
                      }
                    }
                  }
                }
              }
            }
          }
        }
      }
    }
  }
  JOINT lThigh
  {
    OFFSET 8.367 -8.2066 0.5982
    CHANNELS 6 Xposition Yposition Zposition Zrotation Xrotation Yrotation
    JOINT lShin
    {
      OFFSET 2.1923 -43.463 -0.4932
      CHANNELS 6 Xposition Yposition Zposition Zrotation Xrotation Yrotation
      JOINT lFoot
      {
        OFFSET 0.7333 -45.8593 -2.6451
        CHANNELS 6 Xposition Yposition Zposition Zrotation Xrotation Yrotation
        End Site
        {
          OFFSET 2.6618 -4.2699 12.3931
        }
      }
    }
  }
  JOINT rThigh
  {
    OFFSET -8.367 -8.2066 0.5982
    CHANNELS 6 Xposition Yposition Zposition Zrotation Xrotation Yrotation
    JOINT rShin
    {
      OFFSET -2.1923 -43.463 -0.4931
      CHANNELS 6 Xposition Yposition Zposition Zrotation Xrotation Yrotation
      JOINT rFoot
      {
        OFFSET -0.7333 -45.8593 -2.6451
        CHANNELS 6 Xposition Yposition Zposition Zrotation Xrotation Yrotation
        End Site
        {
          OFFSET -2.6618 -4.2699 12.3931
        }
      }
    }
  }
}
MOTION
Frames:	4
Frame Time:	0.0333333
0 90.174 2.4664 0 0 -0 0 -1.186 -1.5018 0 0 -0 0 9.964 0.2134 0 0 -0 0 13.134 -3.2573 0 0 -0 0 20.686 -1.6905 0 0 -0 0 7.238 -0.1237 0 0 -0 1.7069 20.075 5.0056 0 0 -0 13.6458 -0.047 -4.849 1.66051 0.0835086 5.75766 28.3255 -0.9759 2.2888 -0.0175111 0.895433 15.7816 22.1583 -0.53 10.8316 7.95139e-016 -1.98785e-016 -0 0.786 0.112 2.5817 5.46658e-016 -3.97569e-016 -0 0.3601 -0.878 4.2331 5.96354e-016 0 -0 1.8127 -1.216 2.2227 3.97569e-016 1.98785e-016 9.54166e-015 0.9571 1.114 1.7695 1.49089e-016 -3.97569e-016 -0 4.1246 0.487 4.1451 6.4605e-016 0 3.18055e-015 3.4052 -1.454 2.7682 5.96354e-016 0 3.18055e-015 1.4531 -1.795 1.2713 8.94531e-016 -1.98785e-016 6.36111e-015 5.6954 0.21 2.1184 6.4605e-016 0 3.18055e-015 3.9766 -1.54 2.3863 5.96354e-016 0 3.18055e-015 1.4042 -1.926 1.125 8.94531e-016 -1.98785e-016 6.36111e-015 2.0956 0.66 -0.3894 1.49089e-016 -3.97569e-016 -0 5.0395 -0.09 2.4971 6.4605e-016 0 3.18055e-015 3.7921 -1.552 1.4806 5.96354e-016 0 3.18055e-015 1.4655 -1.808 0.9609 8.94531e-016 -1.98785e-016 6.36111e-015 4.9141 -1.269 0.3591 6.4605e-016 0 3.18055e-015 3.1477 -1.685 0.8462 5.96354e-016 0 3.18055e-015 0.8055 -1.585 0.7955 8.94531e-016 -1.98785e-016 6.36111e-015 -1.7069 20.075 5.0056 0 0 -0 -13.6458 -0.047 -4.849 -1.4496 0.0636048 -5.0245 -28.3255 -0.9759 2.2888 -1.74811 1.20616 -16.8394 -22.1583 -0.53 10.8316 -1.19271e-015 1.98785e-016 -3.18055e-015 -0.786 0.112 2.5817 -3.97569e-016 1.98785e-016 -3.18055e-015 -0.3601 -0.878 4.2331 -2.98177e-016 1.98785e-016 -3.18055e-015 -1.8127 -1.216 2.2227 -2.98177e-016 3.97569e-016 -0 -0.9571 1.114 1.7695 4.96962e-016 0 -6.36111e-015 -4.1246 0.487 4.1451 -9.93923e-017 3.97569e-016 -0 -3.4052 -1.454 2.7682 -8.94531e-016 5.96354e-016 -0 -1.4531 -1.795 1.2713 -3.97569e-016 3.97569e-016 -0 -5.6954 0.21 2.1184 -9.93923e-017 3.97569e-016 -0 -3.9766 -1.54 2.3863 -8.94531e-016 5.96354e-016 -0 -1.4042 -1.926 1.125 -3.97569e-016 3.97569e-016 -0 -2.0956 0.66 -0.3894 4.96962e-016 0 -6.36111e-015 -5.0395 -0.09 2.4971 -9.93923e-017 3.97569e-016 -0 -3.7921 -1.552 1.4806 -8.94531e-016 5.96354e-016 -0 -1.4655 -1.808 0.9609 -3.97569e-016 3.97569e-016 -0 -4.9141 -1.269 0.3592 -9.93923e-017 3.97569e-016 -0 -3.1477 -1.685 0.8462 -8.94531e-016 5.96354e-016 -0 -0.8055 -1.585 0.7955 -3.97569e-016 3.97569e-016 -0 8.367 -8.2066 0.5982 -4.66115 -1.03232 0.120763 2.1923 -43.463 -0.4932 0.00990601 1.55097 0.177175 0.7333 -45.8593 -2.6451 4.65196 -0.54114 -0.255042 -8.367 -8.2066 0.5982 4.66115 -1.03222 -0.120763 -2.1923 -43.463 -0.4931 -0.00990459 1.5509 -0.177176 -0.7333 -45.8593 -2.6451 -4.65196 -0.541171 0.255041 
-0.254193 17.5067 30.5344 -180 -79.2592 -180 0 -1.186 -1.5018 0.461684 9.34288 0.0801472 0 9.964 0.2134 0.928856 18.6861 0.0845079 1.11022e-016 13.134 -3.2573 0.928855 18.6861 0.0845077 0 20.686 -1.6905 -1.17508e-005 13.3322 2.33747e-006 0 7.238 -0.1237 -0.00379446 6.68666 0.0344237 1.7069 20.075 5.0056 -6.44114 -0.10395 -32.0475 13.6458 -0.047 -4.849 -36.9586 1.82304 8.45214 28.3255 -0.9759 2.2888 -27.5368 -48.2156 -46.8329 22.1583 -0.53 10.8316 -30.6356 27.4338 -1.86364 0.786 0.112 2.5817 -3.08973e-031 -5.56597e-015 -3.18055e-015 0.3601 -0.878 4.2331 -0 -5.1684e-015 -0 1.8127 -1.216 2.2227 -0 -9.14409e-015 -0 0.9571 1.114 1.7695 8.82781e-032 -1.59028e-015 3.18055e-015 4.1246 0.487 4.1451 1.59028e-015 -1.55052e-014 3.18055e-015 3.4052 -1.454 2.7682 1.59028e-015 -3.57812e-015 3.18055e-015 1.4531 -1.795 1.2713 1.59028e-015 -8.74653e-015 -9.54166e-015 5.6954 0.21 2.1184 1.59028e-015 -1.55052e-014 3.18055e-015 3.9766 -1.54 2.3863 1.59028e-015 -3.57812e-015 3.18055e-015 1.4042 -1.926 1.125 1.59028e-015 -8.74653e-015 -9.54166e-015 2.0956 0.66 -0.3894 8.82781e-032 -1.59028e-015 3.18055e-015 5.0395 -0.09 2.4971 1.59028e-015 -1.55052e-014 3.18055e-015 3.7921 -1.552 1.4806 1.59028e-015 -3.57812e-015 3.18055e-015 1.4655 -1.808 0.9609 1.59028e-015 -8.74653e-015 -9.54166e-015 4.9141 -1.269 0.3591 1.59028e-015 -1.55052e-014 3.18055e-015 3.1477 -1.685 0.8462 1.59028e-015 -3.57812e-015 3.18055e-015 0.8055 -1.585 0.7955 1.59028e-015 -8.74653e-015 -9.54166e-015 -1.7069 20.075 5.0056 6.43812 -0.107324 32.0463 -13.6458 -0.047 -4.849 37.1658 1.7922 -7.72751 -28.3255 -0.9759 2.2888 25.0352 -49.7824 44.3178 -22.1583 -0.53 10.8316 30.3045 27.4961 2.59504 -0.786 0.112 2.5817 -1.61554e-006 -9.67637e-007 -1.14299e-006 -0.3601 -0.878 4.2331 -1.71254e-006 2.36261e-006 1.5543e-006 -1.8127 -1.216 2.2227 3.32808e-006 -1.39498e-006 -4.11308e-007 -0.9571 1.114 1.7695 7.95139e-016 3.97569e-015 -0 -4.1246 0.487 4.1451 -1.61554e-006 -9.67637e-007 -1.14299e-006 -3.4052 -1.454 2.7682 -1.71254e-006 2.36261e-006 1.5543e-006 -1.4531 -1.795 1.2713 3.32808e-006 -1.39498e-006 -4.11308e-007 -5.6954 0.21 2.1184 -1.61554e-006 -9.67637e-007 -1.14299e-006 -3.9766 -1.54 2.3863 -1.71254e-006 2.36261e-006 1.5543e-006 -1.4042 -1.926 1.125 3.32808e-006 -1.39498e-006 -4.11308e-007 -2.0956 0.66 -0.3894 7.95139e-016 3.97569e-015 -0 -5.0395 -0.09 2.4971 -1.61554e-006 -9.67637e-007 -1.14299e-006 -3.7921 -1.552 1.4806 -1.71254e-006 2.36261e-006 1.5543e-006 -1.4655 -1.808 0.9609 3.32808e-006 -1.39498e-006 -4.11308e-007 -4.9141 -1.269 0.3592 -1.61554e-006 -9.67637e-007 -1.14299e-006 -3.1477 -1.685 0.8462 -1.71254e-006 2.36261e-006 1.5543e-006 -0.8055 -1.585 0.7955 3.32808e-006 -1.39498e-006 -4.11308e-007 8.367 -8.2066 0.5982 25.1285 -74.688 39.7967 2.1923 -43.463 -0.4932 2.23677 22.3304 -0.17995 0.7333 -45.8593 -2.6451 9.29266 1.07389 -8.4823 -8.367 -8.2066 0.5982 -7.02553 -73.8471 -14.9244 -2.1923 -43.463 -0.4931 1.16946 36.2817 -2.66357 -0.7333 -45.8593 -2.6451 -10.1746 10.8457 3.28297 
-0.688429 -11.3812 54.0373 -180 -33.9259 -180 0 -1.186 -1.5018 0.725153 13.489 0.0270707 0 9.964 0.2134 1.50932 26.9773 -0.133191 2.22045e-016 13.134 -3.2573 1.50932 26.9773 -0.133191 0 20.686 -1.6905 -3.56383e-005 19.333 1.47458e-005 -4.44089e-016 7.238 -0.1237 0.0193847 9.59145 -0.121337 1.7069 20.075 5.0056 -9.50615 0.100931 -46.4745 13.6458 -0.047 -4.849 -54.2365 2.60221 9.67149 28.3255 -0.9759 2.2888 -57.027 -35.7725 -79.4263 22.1583 -0.53 10.8316 -45.8598 38.6066 -0.753592 0.786 0.112 2.5817 1.51051e-008 5.53457e-007 -1.06395e-006 0.3601 -0.878 4.2331 -1.51051e-008 -5.53457e-007 1.06395e-006 1.8127 -1.216 2.2227 1.51051e-008 5.53457e-007 -1.06395e-006 0.9571 1.114 1.7695 -7.35503e-015 -1.59028e-015 1.59028e-015 4.1246 0.487 4.1451 1.51051e-008 5.53457e-007 -1.06395e-006 3.4052 -1.454 2.7682 -1.51051e-008 -5.53457e-007 1.06395e-006 1.4531 -1.795 1.2713 1.51051e-008 5.53457e-007 -1.06395e-006 5.6954 0.21 2.1184 1.51051e-008 5.53457e-007 -1.06395e-006 3.9766 -1.54 2.3863 -1.51051e-008 -5.53457e-007 1.06395e-006 1.4042 -1.926 1.125 1.51051e-008 5.53457e-007 -1.06395e-006 2.0956 0.66 -0.3894 -7.35503e-015 -1.59028e-015 1.59028e-015 5.0395 -0.09 2.4971 1.51051e-008 5.53457e-007 -1.06395e-006 3.7921 -1.552 1.4806 -1.51051e-008 -5.53457e-007 1.06395e-006 1.4655 -1.808 0.9609 1.51051e-008 5.53457e-007 -1.06395e-006 4.9141 -1.269 0.3591 1.51051e-008 5.53457e-007 -1.06395e-006 3.1477 -1.685 0.8462 -1.51051e-008 -5.53457e-007 1.06395e-006 0.8055 -1.585 0.7955 1.51051e-008 5.53457e-007 -1.06395e-006 -1.7069 20.075 5.0056 9.50241 0.10508 46.4648 -13.6458 -0.047 -4.849 54.441 2.56667 -8.9512 -28.3255 -0.9759 2.2888 56.3165 -37.9796 78.4494 -22.1583 -0.53 10.8316 45.3738 38.8836 1.811 -0.786 0.112 2.5817 2.78299e-015 1.59028e-015 -1.59028e-015 -0.3601 -0.878 4.2331 0 0 -0 -1.8127 -1.216 2.2227 4.41391e-032 1.59028e-015 -1.59028e-015 -0.9571 1.114 1.7695 2.78299e-015 0 -1.59028e-015 -4.1246 0.487 4.1451 3.97569e-016 0 3.18055e-015 -3.4052 -1.454 2.7682 3.57812e-015 0 -1.59028e-015 -1.4531 -1.795 1.2713 5.96354e-016 0 -0 -5.6954 0.21 2.1184 3.97569e-016 0 3.18055e-015 -3.9766 -1.54 2.3863 3.57812e-015 0 -1.59028e-015 -1.4042 -1.926 1.125 5.96354e-016 0 -0 -2.0956 0.66 -0.3894 2.78299e-015 0 -1.59028e-015 -5.0395 -0.09 2.4971 3.97569e-016 0 3.18055e-015 -3.7921 -1.552 1.4806 3.57812e-015 0 -1.59028e-015 -1.4655 -1.808 0.9609 5.96354e-016 0 -0 -4.9141 -1.269 0.3592 3.97569e-016 0 3.18055e-015 -3.1477 -1.685 0.8462 3.57812e-015 0 -1.59028e-015 -0.8055 -1.585 0.7955 5.96354e-016 0 -0 8.367 -8.2066 0.5982 129.117 -65.0054 142.671 2.1923 -43.463 -0.4932 3.3703 28.0333 -0.456478 0.7333 -45.8593 -2.6451 12.1462 3.7257 -12.408 -8.367 -8.2066 0.5982 -154.383 -72.0039 -160.85 -2.1923 -43.463 -0.4931 2.02361 51.4152 -2.98838 -0.7333 -45.8593 -2.6451 -13.2422 16.474 3.53384 
-0.570956 -5.67268 48.8302 -180 -44 -180 0 -1.186 -1.5018 0.660871 12.4506 0.0481736 -1.11022e-016 9.964 0.2134 1.36089 24.9009 -0.0570498 2.22045e-016 13.134 -3.2573 1.36089 24.9009 -0.0570503 0 20.686 -1.6905 -8.41691e-006 17.9982 2.42867e-006 -4.44089e-016 7.238 -0.1237 0.0678596 8.71412 -0.466947 1.7069 20.075 5.0056 -9.15543 0.587948 -43.2826 13.6458 -0.047 -4.849 -50.0532 2.4281 9.41092 28.3255 -0.9759 2.2888 -52.2459 -40.2433 -74.6676 22.1583 -0.53 10.8316 -42.8059 36.0117 -0.725773 0.786 0.112 2.5817 -2.94768e-006 1.41174e-006 1.02198e-007 0.3601 -0.878 4.2331 -9.54166e-015 2.38542e-015 -3.18055e-015 1.8127 -1.216 2.2227 -2.94768e-006 1.41174e-006 1.02198e-007 0.9571 1.114 1.7695 1.59028e-015 2.38542e-015 3.18055e-015 4.1246 0.487 4.1451 -2.94768e-006 1.41174e-006 1.02198e-007 3.4052 -1.454 2.7682 -4.37326e-015 -2.38542e-015 -0 1.4531 -1.795 1.2713 -2.94768e-006 1.41174e-006 1.02198e-007 5.6954 0.21 2.1184 -2.94768e-006 1.41174e-006 1.02198e-007 3.9766 -1.54 2.3863 -4.37326e-015 -2.38542e-015 -0 1.4042 -1.926 1.125 -2.94768e-006 1.41174e-006 1.02198e-007 2.0956 0.66 -0.3894 1.59028e-015 2.38542e-015 3.18055e-015 5.0395 -0.09 2.4971 -2.94768e-006 1.41174e-006 1.02198e-007 3.7921 -1.552 1.4806 -4.37326e-015 -2.38542e-015 -0 1.4655 -1.808 0.9609 -2.94768e-006 1.41174e-006 1.02198e-007 4.9141 -1.269 0.3591 -2.94768e-006 1.41174e-006 1.02198e-007 3.1477 -1.685 0.8462 -4.37326e-015 -2.38542e-015 -0 0.8055 -1.585 0.7955 -2.94768e-006 1.41174e-006 1.02198e-007 -1.7069 20.075 5.0056 9.15231 0.609957 43.2572 -13.6458 -0.047 -4.849 50.2561 2.39413 -8.69091 -28.3255 -0.9759 2.2888 51.2458 -42.3971 73.4469 -22.1583 -0.53 10.8316 42.5764 36.5982 1.59503 -0.786 0.112 2.5817 1.6925e-006 2.54748e-007 -7.49554e-007 -0.3601 -0.878 4.2331 3.57812e-015 -2.38542e-014 -3.18055e-015 -1.8127 -1.216 2.2227 1.45551e-006 2.4945e-007 3.10482e-007 -0.9571 1.114 1.7695 -7.95139e-016 -1.59028e-015 3.18055e-015 -4.1246 0.487 4.1451 1.6925e-006 2.54748e-007 -7.49554e-007 -3.4052 -1.454 2.7682 9.54166e-015 -2.38542e-014 -0 -1.4531 -1.795 1.2713 1.45551e-006 2.4945e-007 3.10482e-007 -5.6954 0.21 2.1184 1.6925e-006 2.54748e-007 -7.49554e-007 -3.9766 -1.54 2.3863 9.54166e-015 -2.38542e-014 -0 -1.4042 -1.926 1.125 1.45551e-006 2.4945e-007 3.10482e-007 -2.0956 0.66 -0.3894 -7.95139e-016 -1.59028e-015 3.18055e-015 -5.0395 -0.09 2.4971 1.6925e-006 2.54748e-007 -7.49554e-007 -3.7921 -1.552 1.4806 9.54166e-015 -2.38542e-014 -0 -1.4655 -1.808 0.9609 1.45551e-006 2.4945e-007 3.10482e-007 -4.9141 -1.269 0.3592 1.6925e-006 2.54748e-007 -7.49554e-007 -3.1477 -1.685 0.8462 9.54166e-015 -2.38542e-014 -0 -0.8055 -1.585 0.7955 1.45551e-006 2.4945e-007 3.10482e-007 8.367 -8.2066 0.5982 120.445 -71.1187 134.518 2.1923 -43.463 -0.4932 3.15641 27.2097 -0.397914 0.7333 -45.8593 -2.6451 11.4584 3.022 -11.5133 -8.367 -8.2066 0.5982 -144.905 -78.7802 -151.842 -2.1923 -43.463 -0.4931 1.81565 47.7442 -2.66989 -0.7333 -45.8593 -2.6451 -12.4946 15.2133 3.2871 
